<?xml version="1.0" encoding="UTF-8" standalone="no"?>
<!-- Created with Inkscape (http://www.inkscape.org/) -->

<svg
   width="115.87492mm"
   height="116.67773mm"
   viewBox="0 0 115.87492 116.67774"
   version="1.1"
   id="svg1"
   xml:space="preserve"
   xmlns="http://www.w3.org/2000/svg"
   xmlns:svg="http://www.w3.org/2000/svg"><defs
     id="defs1" /><g
     id="layer1"><g
       id="g35"
       transform="translate(-19.338777,-11.072638)"><g
         id="g31"
         transform="translate(-5.7025406,-23.202695)"><path
           id="rect1"
           style="fill:#00aec7;fill-opacity:1;stroke-width:0.264583"
           d="m 32.108118,56.530916 v 2.987932 h 5.999633 c 2.208948,1.35e-4 3.999621,1.790808 3.999756,3.999756 1.5e-4,2.20915 -1.790606,4.000137 -3.999756,4.000272 h -5.999633 v 11.195182 h 5.999633 c 2.208948,1.35e-4 3.999621,1.790808 3.999756,3.999756 1.51e-4,2.20915 -1.790606,4.000138 -3.999756,4.000273 h -5.999633 v 11.195182 h 5.999633 c 2.20915,1.35e-4 3.999906,1.791121 3.999756,4.000271 -1.33e-4,2.20895 -1.790806,3.99963 -3.999756,3.99976 h -5.999633 v 11.19363 h 5.999633 c 2.20895,1.3e-4 3.999623,1.79081 3.999756,3.99976 1.49e-4,2.20915 -1.790607,4.00014 -3.999756,4.00027 h -5.999633 v 2.98741 c 0,10.29618 7.318312,14.87673 15,15.00012 7.681688,0.12339 9.792055,-5.64999 17.89,-5.64999 8.097945,0 8.311368,5.64999 17.89,5.64999 9.578632,0 9.422176,-5.64831 17.890002,-5.64999 8.46783,-0.002 9.96101,5.64069 17.89,5.64069 7.92899,0 14.99969,-4.51781 14.99969,-14.99082 v -2.98741 h -5.99912 c -2.20915,-1.4e-4 -3.9999,-1.79112 -3.99975,-4.00027 1.3e-4,-2.20895 1.7908,-3.99962 3.99975,-3.99976 h 5.99912 V 105.9093 h -5.99912 c -2.20895,-1.4e-4 -3.99962,-1.79081 -3.99975,-3.99976 -1.5e-4,-2.209147 1.7906,-4.000133 3.99975,-4.000271 h 5.99912 V 86.714087 h -5.99912 c -2.20915,-1.38e-4 -3.9999,-1.791125 -3.99975,-4.000273 1.3e-4,-2.208946 1.7908,-3.999618 3.99975,-3.999756 h 5.99912 V 67.518876 h -5.99912 c -2.20915,-1.38e-4 -3.9999,-1.791124 -3.99975,-4.000272 1.3e-4,-2.208946 1.7908,-3.999618 3.99975,-3.999756 h 5.99912 v -2.987932 c 0,-9.115631 -7.94667,-15.06642 -14.99927,-15.06642 -7.0526,0 -8.37517,5.650398 -17.89,5.650458 -9.514834,6e-5 -9.579928,-5.678214 -17.890422,-5.650458 -8.310494,0.02776 -8.508187,5.65046 -17.889577,5.650458 -9.38139,-2e-6 -11.075637,-5.650458 -17.89,-5.650458 -6.814363,0 -15.000423,5.442544 -15.000423,15.06642 z m 34.893477,4.893242 h 31.772738 c 8.309997,0 15.000117,6.689601 15.000117,14.999601 v 31.773251 c 0,8.31 -6.69012,15.00012 -15.000117,15.00012 H 67.001595 c -8.31,0 -15.000118,-6.69012 -15.000118,-15.00012 V 76.423759 c 0,-8.31 6.690118,-14.999601 15.000118,-14.999601 z" /><path
           id="rect3"
           style="fill:#feca38;stroke-width:0.212264"
           d="m 70.142489,67.531795 c -6.66678,0 -12.033891,5.367111 -12.033891,12.033891 v 25.490434 c 0,6.66678 5.367111,12.03389 12.033891,12.03389 h 25.490433 c 6.666778,0 12.033888,-5.36711 12.033888,-12.03389 V 79.565686 c 0,-6.66678 -5.36711,-12.033891 -12.033888,-12.033891 z m 2.100647,15.373222 a 4.362515,4.362515 0 0 1 4.362524,4.362525 4.362515,4.362515 0 0 1 -4.362524,4.362007 4.362515,4.362515 0 0 1 -4.362525,-4.362007 4.362515,4.362515 0 0 1 4.362525,-4.362525 z m 21.289139,0 a 4.362515,4.362515 0 0 1 4.362525,4.362525 4.362515,4.362515 0 0 1 -4.362525,4.362007 4.362515,4.362515 0 0 1 -4.362524,-4.362007 4.362515,4.362515 0 0 1 4.362524,-4.362525 z m 5.485454,14.060124 a 2.5,2.5 0 0 1 0.644405,0.10542 2.5,2.5 0 0 1 1.673796,3.115059 c 0,0 -0.9265,3.03517 -3.65042,5.89059 -2.723928,2.85543 -7.428319,5.66219 -14.449247,5.66219 -7.020928,0 -11.849569,-2.78406 -14.734501,-5.59759 -2.884931,-2.81354 -4.011642,-5.80275 -4.011642,-5.80275 a 2.5,2.5 0 0 1 1.470712,-3.214789 2.5,2.5 0 0 1 3.214791,1.470711 c 0,0 0.693354,1.896268 2.818432,3.968748 2.125078,2.07248 5.497062,4.17546 11.242208,4.17546 5.745147,0 8.894817,-2.08286 10.831897,-4.11345 1.937081,-2.03059 2.478918,-3.878829 2.478918,-3.878829 a 2.5,2.5 0 0 1 2.470651,-1.78077 z" /></g><g
         id="path5"
         transform="translate(0.63157,-1.744953)" /><g
         id="path6"
         transform="translate(0.63157,-1.744953)" /><g
         id="path7"
         transform="translate(0.63157,-1.744953)" /><g
         id="path8"
         transform="translate(0.63157,-1.744953)" /><g
         id="g12"
         transform="translate(-102.88843,-1.744953)"><g
           id="path9"
           style="opacity:1"><path
             style="baseline-shift:baseline;display:inline;overflow:visible;vector-effect:none;fill:#000dc7;stroke-linecap:round;enable-background:accumulate;stop-color:#000000;stop-opacity:1"
             d="m 127.03643,65.263219 c 13.96004,0 13.96004,0 13.96004,0"
             id="path20" /></g><g
           id="path10"
           style="opacity:1"><path
             style="baseline-shift:baseline;display:inline;overflow:visible;vector-effect:none;fill:#000dc7;stroke-linecap:round;enable-background:accumulate;stop-color:#000000;stop-opacity:1"
             d="m 127.03643,122.84841 c 13.96004,0 13.96004,0 13.96004,0"
             id="path26" /></g><g
           id="path11"
           style="opacity:1"><path
             style="baseline-shift:baseline;display:inline;overflow:visible;vector-effect:none;fill:#000dc7;stroke-linecap:round;enable-background:accumulate;stop-color:#000000;stop-opacity:1"
             d="m 127.03643,103.65335 c 13.96004,0 13.96004,0 13.96004,0"
             id="path24" /></g><g
           id="path12"
           style="opacity:1"><path
             style="baseline-shift:baseline;display:inline;overflow:visible;vector-effect:none;fill:#000dc7;stroke-linecap:round;enable-background:accumulate;stop-color:#000000;stop-opacity:1"
             d="m 127.03643,84.458283 c 13.96004,0 13.96004,0 13.96004,0"
             id="path22" /></g></g><path
         style="fill:none;fill-opacity:1;stroke:#04afcf;stroke-width:5;stroke-linecap:square;stroke-dasharray:none;stroke-opacity:1"
         d="m 21.840095,33.807 c -0.04281,-4.599134 0.786107,-9.502814 5.3223,-14.039 4.536193,-4.536186 9.605736,-6.195005 15.465109,-6.195005 5.859373,0 10.959432,5.759005 17.017497,5.759005 6.058065,0 8.168926,-5.81283 17.613937,-5.75902 9.44501,-0.05381 11.555871,5.75902 17.613936,5.75902 6.058066,0 11.158126,-5.759005 17.017496,-5.759005 5.85937,0 10.92892,1.658819 15.46511,6.195005 4.53619,4.536186 5.36511,9.439866 5.3223,14.039 -0.12228,13.136426 0.0173,35.604507 0.0173,35.604507 0,0 -0.10503,22.468082 0.0173,35.604503 0.0428,4.59914 -0.78611,9.50282 -5.3223,14.039 -4.5362,4.53619 -9.60574,6.19501 -15.46511,6.19501 -5.85938,0 -10.95943,-5.75901 -17.017499,-5.75901 -6.058065,0 -8.168926,5.81282 -17.631235,5.75902 -9.462309,0.0538 -11.57317,-5.75902 -17.631235,-5.75902 -6.058065,0 -11.158124,5.75901 -17.017497,5.75901 -5.859373,0 -10.928916,-1.65882 -15.465109,-6.19501 -4.536193,-4.53618 -5.365111,-9.43986 -5.3223,-14.039 0.122281,-13.136421 -3.2e-5,-35.604503 -3.2e-5,-35.604503 0,0 0.122313,-22.468081 3.2e-5,-35.604507 z"
         id="path32" /></g></g></svg>
